# xmcd
#
# Track frame offsets:
#	150
#	10200
#	21375
#	31725
#	40125
#	49125
#	60225
#	69525
#	81375
#	90750
#	101625
#
# Disc length: 1460 seconds
#
# Revision: 1
# Processed by: cddbd v1.5.2PL0 Copyright (c) Steve Scherf et al.
# Submitted via: audiograbber 1.83.01
#
DISCID=7e05b20b
DTITLE=Johnny Cash and The Tennessee Two - Get Rhythm
DYEAR=1991
DGENRE=Country
TTITLE0=Get Rhythm
TTITLE1=Mean Eyed Cat
TTITLE2=You Win Again
TTITLE3=Country Boy
TTITLE4=Two Timin´ Woman
TTITLE5=Oh Lonesome Me
TTITLE6=Luther´s Boogie
TTITLE7=Doin´ My Time
TTITLE8=New Mexico
TTITLE9=Belshazah
TTITLE10=Sugartime
EXTD=
EXTT0=
EXTT1=
EXTT2=
EXTT3=
EXTT4=
EXTT5=
EXTT6=
EXTT7=
EXTT8=
EXTT9=
EXTT10=
PLAYORDER=
